<svg width="946" height="144" viewBox="0 0 946 144" fill="none" xmlns="http://www.w3.org/2000/svg">
<path d="M683 10.8948H670.5V33.1579H640.5V43.0527H645.5C645.5 45.1058 646.25 46.8374 647.725 48.3216C649.25 49.7811 650.975 50.4737 653 50.4737C655.025 50.4737 656.75 49.7811 658.275 48.3216C659.75 46.8374 660.5 45.1058 660.5 43.0527H674.25C674.25 45.1058 674.95 46.8374 676.45 48.3216C677.925 49.7811 679.675 50.4737 681.75 50.4737C683.75 50.4737 685.5 49.7811 686.975 48.3216C688.475 46.8374 689.25 45.1058 689.25 43.0527H695.5V25.7369L683 10.8948ZM655.7 45.6995C655 46.4416 654.1 46.7632 653 46.7632C651.9 46.7632 651 46.4416 650.3 45.6995C649.6 44.9574 649.25 44.0916 649.25 43.0527C649.25 42.0879 649.6 41.2221 650.3 40.48C651 39.7379 651.9 39.3421 653 39.3421C654.1 39.3421 655 39.7379 655.7 40.48C656.4 41.2221 656.75 42.0879 656.75 43.0527C656.75 44.0916 656.4 44.9574 655.7 45.6995ZM684.35 45.6995C683.6 46.4416 682.725 46.7632 681.75 46.7632C680.7 46.7632 679.825 46.4416 679.075 45.6995C678.325 44.9574 678 44.0916 678 43.0527C678 42.0879 678.325 41.2221 679.075 40.48C679.825 39.7379 680.7 39.3421 681.75 39.3421C682.725 39.3421 683.6 39.7379 684.35 40.48C685.1 41.2221 685.5 42.0879 685.5 43.0527C685.5 44.0916 685.1 44.9574 684.35 45.6995ZM675.5 25.7369V15.8421H680.65L688.975 25.7369H675.5Z" fill="#F5F5F5"/>
<path d="M54.7531 123.12H56.2131V124.12C56.2131 127.58 52.6931 130.06 48.9331 130.7L48.2731 129.36C51.5731 128.86 54.7531 126.7 54.7531 124.12V123.12ZM55.0531 123.12H56.4931V124.12C56.4931 126.64 59.7131 128.86 62.9731 129.36L62.3131 130.7C58.5931 130.06 55.0531 127.54 55.0531 124.12V123.12ZM54.7531 133.68H56.3931V140.56H54.7531V133.68ZM47.4531 132.66H63.7931V134.04H47.4531V132.66ZM78.5516 122.48H80.2116V140.56H78.5516V122.48ZM74.3316 129.72H79.2916V131.1H74.3316V129.72ZM72.7516 124.42H74.3916C74.3916 129.58 72.2516 134.14 66.2516 137.14L65.3316 135.84C70.5916 133.26 72.7516 129.42 72.7516 124.7V124.42ZM66.1116 124.42H73.6316V125.78H66.1116V124.42ZM96.39 122.5H98.07V135.74H96.39V122.5ZM86.45 138.8H98.61V140.16H86.45V138.8ZM86.45 134.52H88.09V139.44H86.45V134.52ZM87.95 123.48H89.33V125.32C89.33 128.84 87.33 131.92 84.29 133.16L83.43 131.82C86.15 130.76 87.95 128.12 87.95 125.32V123.48ZM88.25 123.48H89.61V125.32C89.61 128.04 91.43 130.5 94.13 131.48L93.25 132.82C90.25 131.66 88.25 128.76 88.25 125.32V123.48ZM105.648 125.56H107.008V126.34C107.008 129.48 105.008 132.12 101.988 133.14L101.188 131.84C103.848 130.98 105.648 128.78 105.648 126.34V125.56ZM105.948 125.56H107.308V126.34C107.308 128.58 109.168 130.6 111.828 131.38L111.068 132.68C108.028 131.74 105.948 129.3 105.948 126.34V125.56ZM101.648 124.66H111.288V126H101.648V124.66ZM105.648 122.4H107.308V125.14H105.648V122.4ZM110.748 127.62H114.828V129H110.748V127.62ZM114.348 122.48H116.008V133.42H114.348V122.48ZM110.068 133.9C113.808 133.9 116.088 135.12 116.088 137.22C116.088 139.3 113.808 140.52 110.068 140.52C106.308 140.52 104.028 139.3 104.028 137.22C104.028 135.12 106.308 133.9 110.068 133.9ZM110.068 135.2C107.328 135.2 105.688 135.94 105.688 137.22C105.688 138.48 107.328 139.22 110.068 139.22C112.788 139.22 114.448 138.48 114.448 137.22C114.448 135.94 112.788 135.2 110.068 135.2Z" fill="#F5F5F5"/>
<path d="M248.653 126.84H252.173V128.22H248.653V126.84ZM248.653 132.34H252.173V133.72H248.653V132.34ZM255.213 122.48H256.813V140.56H255.213V122.48ZM251.673 122.86H253.233V139.66H251.673V122.86ZM245.513 123.98C247.853 123.98 249.373 126.4 249.373 130.28C249.373 134.16 247.853 136.58 245.513 136.58C243.173 136.58 241.673 134.16 241.673 130.28C241.673 126.4 243.173 123.98 245.513 123.98ZM245.513 125.52C244.093 125.52 243.173 127.36 243.173 130.28C243.173 133.2 244.093 135.04 245.513 135.04C246.953 135.04 247.853 133.2 247.853 130.28C247.853 127.36 246.953 125.52 245.513 125.52ZM272.872 125.22H276.012V126.62H272.872V125.22ZM272.872 129.1H276.012V130.48H272.872V129.1ZM271.712 122.48H273.372V133.22H271.712V122.48ZM261.632 134.08H273.372V140.56H271.712V135.42H261.632V134.08ZM264.392 123.54C267.112 123.54 269.112 125.3 269.112 127.84C269.112 130.36 267.112 132.1 264.392 132.1C261.672 132.1 259.672 130.36 259.672 127.84C259.672 125.3 261.672 123.54 264.392 123.54ZM264.392 124.96C262.592 124.96 261.292 126.12 261.292 127.84C261.292 129.54 262.592 130.72 264.392 130.72C266.192 130.72 267.492 129.54 267.492 127.84C267.492 126.12 266.192 124.96 264.392 124.96ZM281.97 130.96H283.63V133.28H281.97V130.96ZM289.59 122.5H291.25V134.62H289.59V122.5ZM290.55 127.96H293.89V129.34H290.55V127.96ZM277.35 134.1L277.13 132.74C280.37 132.74 284.77 132.74 288.51 132.2L288.65 133.38C284.79 134.06 280.51 134.08 277.35 134.1ZM279.37 135.52H291.25V140.56H289.59V136.84H279.37V135.52ZM277.59 124.12H287.97V125.36H277.59V124.12ZM282.79 126.06C285.33 126.06 286.99 127.08 286.99 128.74C286.99 130.4 285.33 131.42 282.79 131.42C280.23 131.42 278.57 130.4 278.57 128.74C278.57 127.08 280.23 126.06 282.79 126.06ZM282.79 127.2C281.17 127.2 280.13 127.78 280.13 128.74C280.13 129.66 281.17 130.26 282.79 130.26C284.39 130.26 285.43 129.66 285.43 128.74C285.43 127.78 284.39 127.2 282.79 127.2ZM281.97 122.34H283.63V124.72H281.97V122.34ZM308.288 122.5H309.968V135.7H308.288V122.5ZM298.348 138.8H310.508V140.16H298.348V138.8ZM298.348 134.34H299.988V139.26H298.348V134.34ZM300.268 123.74C302.968 123.74 304.968 125.58 304.968 128.2C304.968 130.8 302.968 132.66 300.268 132.66C297.568 132.66 295.548 130.8 295.548 128.2C295.548 125.58 297.568 123.74 300.268 123.74ZM300.268 125.18C298.508 125.18 297.168 126.42 297.168 128.2C297.168 129.96 298.508 131.2 300.268 131.2C302.028 131.2 303.368 129.96 303.368 128.2C303.368 126.42 302.028 125.18 300.268 125.18Z" fill="#F5F5F5"/>
<path d="M663.552 122.48H665.212V131.7H663.552V122.48ZM657.832 123.36H659.632C659.632 127.92 656.492 130.84 651.212 132.12L650.632 130.76C655.312 129.68 657.832 127.3 657.832 124.18V123.36ZM651.572 123.36H658.592V124.72H651.572V123.36ZM658.992 125.08H663.832V126.4H658.992V125.08ZM658.832 128.54H663.732V129.84H658.832V128.54ZM653.572 132.54H665.212V136.98H655.272V139.86H653.632V135.7H663.572V133.88H653.572V132.54ZM653.632 139.06H665.812V140.38H653.632V139.06ZM681.99 122.48H683.59V140.56H681.99V122.48ZM675.41 128.96H678.87V130.34H675.41V128.96ZM678.37 122.9H679.93V139.64H678.37V122.9ZM671.93 125.28H673.21V127.58C673.21 131.54 671.69 135.28 669.03 136.96L668.01 135.72C670.53 134.2 671.93 130.9 671.93 127.58V125.28ZM672.27 125.28H673.55V127.58C673.55 130.72 674.91 133.86 677.39 135.3L676.37 136.52C673.73 134.92 672.27 131.36 672.27 127.58V125.28ZM668.51 124.58H676.77V125.96H668.51V124.58Z" fill="#F5F5F5"/>
<path d="M834.753 123.12H836.213V124.12C836.213 127.58 832.693 130.06 828.933 130.7L828.273 129.36C831.573 128.86 834.753 126.7 834.753 124.12V123.12ZM835.053 123.12H836.493V124.12C836.493 126.64 839.713 128.86 842.973 129.36L842.313 130.7C838.593 130.06 835.053 127.54 835.053 124.12V123.12ZM834.753 133.68H836.393V140.56H834.753V133.68ZM827.453 132.66H843.793V134.04H827.453V132.66ZM858.552 122.48H860.212V140.56H858.552V122.48ZM854.332 129.72H859.292V131.1H854.332V129.72ZM852.752 124.42H854.392C854.392 129.58 852.252 134.14 846.252 137.14L845.332 135.84C850.592 133.26 852.752 129.42 852.752 124.7V124.42ZM846.112 124.42H853.632V125.78H846.112V124.42ZM867.91 129.98H869.57V132.72H867.91V129.98ZM868.69 123.3C871.31 123.3 873.15 124.74 873.15 126.88C873.15 129.02 871.31 130.44 868.69 130.44C866.09 130.44 864.25 129.02 864.25 126.88C864.25 124.74 866.09 123.3 868.69 123.3ZM868.69 124.58C866.99 124.58 865.81 125.52 865.81 126.88C865.81 128.26 866.99 129.18 868.69 129.18C870.41 129.18 871.59 128.26 871.59 126.88C871.59 125.52 870.41 124.58 868.69 124.58ZM875.59 122.5H877.25V136.32H875.59V122.5ZM876.55 128.6H879.89V129.98H876.55V128.6ZM865.81 138.78H877.89V140.16H865.81V138.78ZM865.81 135.14H867.47V139.38H865.81V135.14ZM863.43 133.64L863.21 132.28C866.39 132.28 870.79 132.24 874.47 131.68L874.59 132.9C870.81 133.6 866.53 133.64 863.43 133.64ZM885.708 133.08H887.348V137.52H885.708V133.08ZM891.488 133.04H893.108V137.5H891.488V133.04ZM881.148 136.96H897.528V138.34H881.148V136.96ZM883.128 123.82H895.508V129.28H884.828V132.92H883.188V127.96H893.868V125.16H883.128V123.82ZM883.188 132.18H895.928V133.54H883.188V132.18Z" fill="#F5F5F5"/>
<path d="M438.093 124.18H439.673V128.6H443.453V124.18H444.993V136.04H438.093V124.18ZM439.673 129.94V134.68H443.453V129.94H439.673ZM451.213 122.48H452.813V140.56H451.213V122.48ZM448.313 129.64H451.793V131H448.313V129.64ZM447.213 122.86H448.793V139.66H447.213V122.86ZM459.752 126.78H461.052V128.32C461.052 132.14 458.972 135.66 456.112 137.08L455.172 135.8C457.832 134.52 459.752 131.44 459.752 128.32V126.78ZM460.072 126.78H461.372V128.32C461.372 131.24 463.192 134.18 465.772 135.46L464.852 136.74C462.032 135.34 460.072 131.92 460.072 128.32V126.78ZM455.672 125.62H465.372V126.96H455.672V125.62ZM459.732 122.8H461.372V126.36H459.732V122.8ZM467.572 122.48H469.252V140.56H467.572V122.48ZM468.852 129.9H472.212V131.28H468.852V129.9ZM477.97 130.96H479.63V133.28H477.97V130.96ZM485.59 122.5H487.25V134.62H485.59V122.5ZM486.55 127.96H489.89V129.34H486.55V127.96ZM473.35 134.1L473.13 132.74C476.37 132.74 480.77 132.74 484.51 132.2L484.65 133.38C480.79 134.06 476.51 134.08 473.35 134.1ZM475.37 135.52H487.25V140.56H485.59V136.84H475.37V135.52ZM473.59 124.12H483.97V125.36H473.59V124.12ZM478.79 126.06C481.33 126.06 482.99 127.08 482.99 128.74C482.99 130.4 481.33 131.42 478.79 131.42C476.23 131.42 474.57 130.4 474.57 128.74C474.57 127.08 476.23 126.06 478.79 126.06ZM478.79 127.2C477.17 127.2 476.13 127.78 476.13 128.74C476.13 129.66 477.17 130.26 478.79 130.26C480.39 130.26 481.43 129.66 481.43 128.74C481.43 127.78 480.39 127.2 478.79 127.2ZM477.97 122.34H479.63V124.72H477.97V122.34ZM504.288 122.5H505.968V135.7H504.288V122.5ZM494.348 138.8H506.508V140.16H494.348V138.8ZM494.348 134.34H495.988V139.26H494.348V134.34ZM496.268 123.74C498.968 123.74 500.968 125.58 500.968 128.2C500.968 130.8 498.968 132.66 496.268 132.66C493.568 132.66 491.548 130.8 491.548 128.2C491.548 125.58 493.568 123.74 496.268 123.74ZM496.268 125.18C494.508 125.18 493.168 126.42 493.168 128.2C493.168 129.96 494.508 131.2 496.268 131.2C498.028 131.2 499.368 129.96 499.368 128.2C499.368 126.42 498.028 125.18 496.268 125.18Z" fill="#F5F5F5"/>
<rect y="86" width="946" height="8" rx="4" fill="#EDEDED"/>
<circle cx="83" cy="90" r="10" fill="#EDEDED"/>
<circle cx="278" cy="90" r="10" fill="#EDEDED"/>
<circle cx="473" cy="90" r="10" fill="#EDEDED"/>
<circle cx="668" cy="90" r="10" fill="#EDEDED"/>
<circle cx="863" cy="90" r="10" fill="#EDEDED"/>
<path d="M277 34.8219C276.388 34.8219 275.866 34.6086 275.435 34.182C275.004 33.7555 274.788 33.2394 274.788 32.6336C274.788 32.0279 275.004 31.5118 275.435 31.0852C275.866 30.6587 276.388 30.4454 277 30.4454C277.612 30.4454 278.134 30.6587 278.565 31.0852C278.996 31.5118 279.211 32.0279 279.211 32.6336C279.211 33.2394 278.996 33.7555 278.565 34.182C278.134 34.6086 277.612 34.8219 277 34.8219ZM267 34.8219C266.388 34.8219 265.866 34.6086 265.435 34.182C265.004 33.7555 264.788 33.2394 264.788 32.6336C264.788 32.0279 265.004 31.5118 265.435 31.0852C265.866 30.6587 266.388 30.4454 267 30.4454C267.612 30.4454 268.134 30.6587 268.565 31.0852C268.996 31.5118 269.211 32.0279 269.211 32.6336C269.211 33.2394 268.996 33.7555 268.565 34.182C268.134 34.6086 267.612 34.8219 267 34.8219ZM287 34.8219C286.388 34.8219 285.866 34.6086 285.435 34.182C285.004 33.7555 284.788 33.2394 284.788 32.6336C284.788 32.0279 285.004 31.5118 285.435 31.0852C285.866 30.6587 286.388 30.4454 287 30.4454C287.612 30.4454 288.134 30.6587 288.565 31.0852C288.996 31.5118 289.211 32.0279 289.211 32.6336C289.211 33.2394 288.996 33.7555 288.565 34.182C288.134 34.6086 287.612 34.8219 287 34.8219ZM277 44.5263C276.388 44.5263 275.866 44.313 275.435 43.8865C275.004 43.4599 274.788 42.9438 274.788 42.3381C274.788 41.7324 275.004 41.2162 275.435 40.7897C275.866 40.3631 276.388 40.1498 277 40.1498C277.612 40.1498 278.134 40.3631 278.565 40.7897C278.996 41.2162 279.211 41.7324 279.211 42.3381C279.211 42.9438 278.996 43.4599 278.565 43.8865C278.134 44.313 277.612 44.5263 277 44.5263ZM267 44.5263C266.388 44.5263 265.866 44.313 265.435 43.8865C265.004 43.4599 264.788 42.9438 264.788 42.3381C264.788 41.7324 265.004 41.2162 265.435 40.7897C265.866 40.3631 266.388 40.1498 267 40.1498C267.612 40.1498 268.134 40.3631 268.565 40.7897C268.996 41.2162 269.211 41.7324 269.211 42.3381C269.211 42.9438 268.996 43.4599 268.565 43.8865C268.134 44.313 267.612 44.5263 267 44.5263ZM287 44.5263C286.388 44.5263 285.866 44.313 285.435 43.8865C285.004 43.4599 284.788 42.9438 284.788 42.3381C284.788 41.7324 285.004 41.2162 285.435 40.7897C285.866 40.3631 286.388 40.1498 287 40.1498C287.612 40.1498 288.134 40.3631 288.565 40.7897C288.996 41.2162 289.211 41.7324 289.211 42.3381C289.211 42.9438 288.996 43.4599 288.565 43.8865C288.134 44.313 287.612 44.5263 287 44.5263ZM259.356 53.1841C258.375 53.1841 257.529 52.832 256.818 52.1278C256.106 51.4235 255.75 50.5863 255.75 49.6163V13.7957C255.75 12.8256 256.106 11.9885 256.818 11.2842C257.529 10.5799 258.375 10.2278 259.356 10.2278H263.971V7.44962C263.971 7.01577 264.118 6.64886 264.412 6.34889C264.706 6.04887 265.072 5.89886 265.512 5.89886C265.97 5.89886 266.352 6.04887 266.659 6.34889C266.967 6.64886 267.12 7.01577 267.12 7.44962V10.2278H286.976V7.40874C286.976 6.97044 287.12 6.60922 287.409 6.32508C287.698 6.04094 288.057 5.89886 288.486 5.89886C288.932 5.89886 289.305 6.04271 289.604 6.3304C289.903 6.61813 290.053 6.97535 290.053 7.40206V10.2278H294.644C295.624 10.2278 296.471 10.5799 297.182 11.2842C297.894 11.9885 298.25 12.8256 298.25 13.7957V49.6163C298.25 50.5863 297.894 51.4235 297.182 52.1278C296.471 52.832 295.624 53.1841 294.644 53.1841H259.356ZM259.356 50.3775H294.644C294.868 50.3775 295.053 50.3061 295.197 50.1634C295.341 50.0207 295.413 49.8383 295.413 49.6163V25.0461H258.586V49.6163C258.586 49.8383 258.659 50.0207 258.803 50.1634C258.947 50.3061 259.131 50.3775 259.356 50.3775ZM258.586 22.2395H295.413V13.7957C295.413 13.5737 295.341 13.3913 295.197 13.2486C295.053 13.1058 294.868 13.0345 294.644 13.0345H259.356C259.131 13.0345 258.947 13.1058 258.803 13.2486C258.659 13.3913 258.586 13.5737 258.586 13.7957V22.2395Z" fill="#F5F5F5"/>
<path d="M842.086 20.7885H883.913V14.6995C883.913 14.4775 883.841 14.2951 883.697 14.1524C883.553 14.0097 883.368 13.9383 883.144 13.9383H842.856C842.631 13.9383 842.447 14.0097 842.303 14.1524C842.159 14.2951 842.086 14.4775 842.086 14.6995V20.7885ZM839.25 14.6995C839.25 13.7267 839.605 12.8888 840.316 12.1859C841.026 11.4831 841.873 11.1317 842.856 11.1317H883.144C884.127 11.1317 884.974 11.4831 885.684 12.1859C886.395 12.8888 886.75 13.7267 886.75 14.6995V27.7433H842.086V44.6166C842.086 44.8386 842.159 45.0131 842.303 45.1399C842.447 45.2668 842.631 45.3303 842.856 45.3303H854.462C854.845 45.3303 855.167 45.4698 855.427 45.7488C855.687 46.0279 855.817 46.3743 855.817 46.7882C855.817 47.2021 855.676 47.547 855.393 47.8229C855.111 48.0988 854.766 48.2368 854.361 48.2368H842.856C841.873 48.2368 841.026 47.8854 840.316 47.1825C839.605 46.4796 839.25 45.6418 839.25 44.6689V14.6995ZM869.99 48.5793L883.822 34.8932C884.086 34.6426 884.407 34.5174 884.787 34.5174C885.166 34.5174 885.501 34.6659 885.792 34.9631C886.091 35.2602 886.234 35.6027 886.221 35.9906C886.208 36.3784 886.054 36.7183 885.76 37.01L871.255 51.3621C870.893 51.7173 870.471 51.8949 869.988 51.8949C869.506 51.8949 869.085 51.7173 868.726 51.3621L861.207 43.9221C860.953 43.6715 860.831 43.3498 860.839 42.9569C860.847 42.564 860.995 42.2168 861.284 41.9155C861.555 41.6327 861.89 41.4912 862.29 41.4912C862.689 41.4912 863.029 41.6371 863.308 41.9289L869.99 48.5793ZM842.086 14.6995V44.6166V37.5095V43.0087V13.9383V14.6995Z" fill="#F5F5F5"/>
<path d="M473 54.8026C468.776 54.8026 465.324 54.2072 462.644 53.0163C459.965 51.8255 458.625 50.304 458.625 48.4519C458.625 47.4973 459.067 46.5769 459.952 45.6904C460.837 44.804 462.062 44.0675 463.63 43.4808L464.466 46.1875C463.719 46.473 463.085 46.817 462.562 47.2198C462.04 47.6226 461.652 48.0333 461.399 48.4519C461.947 49.4668 463.34 50.3111 465.577 50.9851C467.814 51.659 470.288 51.996 473 51.996C475.696 51.996 478.172 51.659 480.43 50.9851C482.688 50.3111 484.091 49.4668 484.639 48.4519C484.402 48.0745 484.025 47.6844 483.507 47.2816C482.99 46.8789 482.345 46.5142 481.572 46.1875L482.394 43.4808C483.945 44.0675 485.163 44.804 486.048 45.6904C486.933 46.5769 487.375 47.4973 487.375 48.4519C487.375 50.304 486.035 51.8255 483.356 53.0163C480.676 54.2072 477.224 54.8026 473 54.8026ZM473 42.5532C473.847 40.9611 474.787 39.4278 475.821 37.9531C476.854 36.4783 477.897 35.0797 478.952 33.7573C480.737 31.4707 482.153 29.4664 483.2 27.7443C484.246 26.0222 484.769 23.7786 484.769 21.0132C484.769 17.7954 483.624 15.0508 481.333 12.7794C479.042 10.5081 476.26 9.37244 472.987 9.37244C469.713 9.37244 466.936 10.5081 464.654 12.7794C462.372 15.0508 461.231 17.7954 461.231 21.0132C461.231 23.7786 461.754 26.0222 462.8 27.7443C463.847 29.4664 465.263 31.4707 467.048 33.7573C468.103 35.0797 469.146 36.4783 470.179 37.9531C471.213 39.4278 472.153 40.9611 473 42.5532ZM473 47.2483C472.564 47.2483 472.171 47.1127 471.82 46.8415C471.469 46.5702 471.218 46.2142 471.067 45.7736C470.003 42.9384 468.749 40.5828 467.304 38.7069C465.859 36.8311 464.478 35.0337 463.159 33.3148C461.822 31.6118 460.694 29.8287 459.774 27.9655C458.854 26.1023 458.394 23.7856 458.394 21.0153C458.394 16.9766 459.804 13.5588 462.623 10.7616C465.443 7.96444 468.902 6.56586 473 6.56586C477.098 6.56586 480.557 7.96071 483.377 10.7504C486.196 13.5401 487.606 16.9626 487.606 21.0178C487.606 23.7864 487.148 26.099 486.234 27.9556C485.319 29.8122 484.196 31.5986 482.865 33.3148C481.529 35.0337 480.139 36.8311 478.695 38.7069C477.251 40.5828 476 42.9328 474.942 45.757C474.785 46.1898 474.531 46.5466 474.18 46.8273C473.829 47.1079 473.436 47.2483 473 47.2483ZM473.013 24.4191C473.95 24.4191 474.755 24.0858 475.428 23.4191C476.101 22.7525 476.437 21.9477 476.437 21.0049C476.437 20.078 476.097 19.2855 475.415 18.6274C474.733 17.9693 473.924 17.6403 472.987 17.6403C472.05 17.6403 471.249 17.9736 470.584 18.6403C469.919 19.3069 469.587 20.1037 469.587 21.0307C469.587 21.9735 469.923 22.774 470.597 23.432C471.271 24.0901 472.076 24.4191 473.013 24.4191Z" fill="#F5F5F5"/>
<path d="M70.3559 56.2499C69.3756 56.2499 68.5295 55.8941 67.8177 55.1823C67.106 54.4706 66.7501 53.6245 66.7501 52.6441V7.35587C66.7501 6.3755 67.106 5.52943 67.8177 4.81768C68.5295 4.10594 69.3756 3.75006 70.3559 3.75006H95.6442C96.6246 3.75006 97.4706 4.10594 98.1824 4.81768C98.8941 5.52943 99.25 6.3755 99.25 7.35587V52.6441C99.25 53.6245 98.8941 54.4706 98.1824 55.1823C97.4706 55.8941 96.6246 56.2499 95.6442 56.2499H70.3559ZM69.5866 47.9086H96.4135V12.0914H69.5866V47.9086Z" fill="#F5F5F5"/>
<path d="M81.6835 31.6189L87.6999 25.6024L86.9221 24.8383L81.6835 30.0856L79.0392 27.4414L78.2838 28.2054L81.6835 31.6189ZM83.0019 36.339C81.8379 36.339 80.7412 36.1164 79.7118 35.6711C78.6824 35.2259 77.7822 34.6179 77.0112 33.8473C76.2401 33.0766 75.6319 32.1767 75.1865 31.1478C74.741 30.1188 74.5183 29.0224 74.5183 27.8584C74.5183 26.6852 74.7409 25.5825 75.1862 24.5502C75.6314 23.518 76.2394 22.62 77.0101 21.8565C77.7808 21.0929 78.6806 20.4883 79.7095 20.0429C80.7385 19.5975 81.8349 19.3748 82.9989 19.3748C84.1721 19.3748 85.2748 19.5974 86.3071 20.0426C87.3393 20.4879 88.2373 21.0921 89.0009 21.8553C89.7645 22.6186 90.369 23.5161 90.8144 24.5479C91.2598 25.5797 91.4825 26.6822 91.4825 27.8554C91.4825 29.0194 91.2599 30.1161 90.8147 31.1455C90.3695 32.1749 89.7652 33.0751 89.002 33.8461C88.2387 34.6172 87.3412 35.2254 86.3094 35.6708C85.2776 36.1163 84.1751 36.339 83.0019 36.339Z" fill="#F5F5F5"/>
</svg>
