<svg width="32" height="32" viewBox="0 0 32 32" fill="none" xmlns="http://www.w3.org/2000/svg">
<path d="M14.0333 21.6179L23.0179 12.6333L21.8564 11.4923L14.0333 19.3282L10.0846 15.3795L8.95644 16.5205L14.0333 21.6179ZM16.0022 28.6666C14.264 28.6666 12.6263 28.3342 11.089 27.6693C9.55176 27.0044 8.20744 26.0965 7.05604 24.9456C5.90462 23.7947 4.99632 22.451 4.33114 20.9144C3.66596 19.3779 3.33337 17.7405 3.33337 16.0022C3.33337 14.2503 3.66582 12.6036 4.33071 11.0621C4.9956 9.52057 5.90349 8.17966 7.05437 7.03937C8.20529 5.89906 9.54902 4.99631 11.0856 4.33113C12.6222 3.66596 14.2596 3.33337 15.9978 3.33337C17.7497 3.33337 19.3964 3.66581 20.9379 4.3307C22.4794 4.99559 23.8204 5.89792 24.9606 7.0377C26.101 8.1775 27.0037 9.51782 27.6689 11.0587C28.3341 12.5995 28.6666 14.2459 28.6666 15.9978C28.6666 17.736 28.3342 19.3738 27.6693 20.911C27.0044 22.4482 26.1021 23.7926 24.9623 24.944C23.8225 26.0954 22.4822 27.0037 20.9413 27.6689C19.4005 28.334 17.7542 28.6666 16.0022 28.6666Z" fill="#74ADFF"/>
</svg>
