<svg width="120" height="43" viewBox="0 0 120 43" fill="none" xmlns="http://www.w3.org/2000/svg">
<g clip-path="url(#clip0_1009_1854)">
<path d="M34.7724 8.95521L19.9559 0.455346C18.8977 -0.15048 17.5972 -0.15048 16.5391 0.455346L1.72257 8.95521C0.656311 9.56713 0 10.6995 0 11.9274V17.1705L5.97748 20.5818V14.7065C5.97748 13.8811 6.41974 13.1208 7.13461 12.7081L17.0984 6.99135C17.8093 6.58273 18.6837 6.58273 19.3965 6.99135L25.6386 10.5714L36.497 16.6825V11.9254C36.497 10.6995 35.8407 9.5651 34.7744 8.95521H34.7724Z" fill="#74ADFF"/>
<path d="M30.5175 27.3209C30.5175 28.1462 30.0752 28.9066 29.3603 29.3193L19.3965 35.036C18.6857 35.4446 17.8113 35.4446 17.1005 35.036L7.13663 29.3193C7.06595 29.2786 6.99931 29.2319 6.93267 29.1831L0 25.2269V30.0999C0 31.3278 0.656311 32.4602 1.72257 33.0701L16.5391 41.57C17.5972 42.1778 18.8977 42.1778 19.9559 41.57L34.7724 33.0701C35.8366 32.4582 36.495 31.3258 36.495 30.0999V24.7166L30.5175 21.3521V27.3209Z" fill="#74ADFF"/>
<path d="M16.4059 21.6165C16.4059 19.9718 15.071 18.6382 13.4252 18.6382C11.7794 18.6382 10.4425 19.9718 10.4425 21.6165C10.4425 23.2612 11.7773 24.5948 13.4252 24.5948C15.073 24.5948 16.4059 23.2612 16.4059 21.6165Z" fill="#74ADFF"/>
<path d="M26.0526 21.6165C26.0526 19.9718 24.7177 18.6382 23.0719 18.6382C21.4261 18.6382 20.0892 19.9718 20.0892 21.6165C20.0892 23.2612 21.4241 24.5948 23.0719 24.5948C24.7198 24.5948 26.0526 23.2612 26.0526 21.6165Z" fill="#74ADFF"/>
<path d="M56.6456 24.546V32.0456H52.6189V24.546H42.1219V21.0147H67.1426V24.546H56.6456ZM63.9802 19.5083C60.4139 17.3371 57.7684 15.5989 54.6343 13.3423C51.5001 15.6009 48.8547 17.3371 45.2884 19.5083L42.8732 16.8166C45.6923 15.0215 48.7982 12.9377 51.1265 11.1995C52.1625 10.4189 52.5926 9.49184 52.5926 8.1887V6.65381H56.6759V8.16024C56.6759 9.46338 57.1081 10.4189 58.142 11.1995C60.4704 12.9357 63.5783 15.0215 66.3954 16.8166L63.9802 19.5083Z" fill="#74ADFF"/>
<path d="M88.0536 32.0436V19.4209H82.0438L81.9287 19.5368C78.5361 22.8953 75.2565 25.8187 71.5186 28.86L69.0165 26.1094C72.6394 22.9827 75.8604 20.0593 78.3927 17.5689C79.1399 16.8167 79.4569 15.8022 79.4569 14.2978V11.1121H70.1111V7.58088H83.4271V15.601H88.0576V6.479H92.0258V32.0436H88.0576H88.0536Z" fill="#74ADFF"/>
<path d="M95.0428 22.6351V19.2197H105.54V17.2803H97.4015V6.27783H101.37V8.44905H113.737V6.27783H117.705V17.2803H109.567V19.2197H120.063V22.6351H95.0428ZM117.418 32.1596C114.714 31.2631 111.925 30.2771 109.308 29.1203C108.676 28.8316 108.129 28.484 107.583 28.1648C107.036 28.484 106.491 28.8316 105.859 29.1203C103.242 30.2791 100.568 31.2631 97.864 32.1596L95.9375 29.0898C98.5264 28.2502 101.2 27.3537 103.587 26.2233C104.997 25.5565 105.457 24.8328 105.457 23.6171V23.3568H109.714V23.6171C109.714 24.8328 110.174 25.5565 111.584 26.2233C113.971 27.3516 116.76 28.2502 119.349 29.0898L117.422 32.1596H117.418ZM113.737 11.8075H101.37V13.8629H113.737V11.8075Z" fill="#74ADFF"/>
</g>
<defs>
<clipPath id="clip0_1009_1854">
<rect width="120" height="42.0276" fill="white"/>
</clipPath>
</defs>
</svg>
