<svg width="120" height="25" viewBox="0 0 120 25" fill="none" xmlns="http://www.w3.org/2000/svg">
<path d="M12.1938 24.6938C18.9282 24.6938 24.3876 19.2345 24.3876 12.5C24.3876 5.76556 18.9282 0.306213 12.1938 0.306213C5.45935 0.306213 0 5.76556 0 12.5C0 19.2345 5.45935 24.6938 12.1938 24.6938Z" fill="#6CFF00"/>
<path d="M79.2806 16.2212C81.9286 16.2212 84.0753 15.1463 84.0753 13.8203C84.0753 12.4944 81.9286 11.4195 79.2806 11.4195C76.6326 11.4195 74.4859 12.4944 74.4859 13.8203C74.4859 15.1463 76.6326 16.2212 79.2806 16.2212Z" fill="#0B1890"/>
<path d="M18.9557 0.306213C23.5831 2.41845 26.7995 7.0807 26.7995 12.5C26.7995 17.9193 23.5817 22.5816 18.9557 24.6938H120V0.306213H18.9557ZM72.6552 6.39056H78.1457V5.2738H80.4154V6.39056H85.9058V8.66034H72.6552V6.39056ZM52.0711 5.67115H69.7664V12.5H67.4966V7.94093H52.0697V5.67115H52.0711ZM43.7936 17.8984C40.75 17.0424 38.451 15.2341 37.3635 12.6659C36.2509 15.2327 33.9658 17.0424 30.9585 17.8984L29.8333 16.065C33.7204 15.0988 36.1896 12.447 36.1896 8.95034V7.94093H30.932V5.67115H43.7629V7.94093H38.5123V8.95034C38.5123 12.447 40.9815 15.0988 44.8936 16.065L43.7936 17.8984ZM49.1418 18.7893H46.872V5.67115H49.1418V18.7893ZM70.6044 15.9591H62.589V18.7893H60.3192V15.9591H51.5371V13.6893H70.6044V15.9591ZM79.2819 18.3418C73.8278 18.3418 72.2941 16.3188 72.2941 13.8217C72.2941 11.3247 73.8501 9.30168 79.2819 9.30168C84.7138 9.30168 86.2697 11.3247 86.2697 13.8217C86.2697 16.3188 85.1209 18.3418 79.2819 18.3418ZM92.7236 8.19189H90.3576V18.7907H88.0878V5.44668H90.3576V5.92071H92.7236V8.19049V8.19189ZM107.667 18.4923H93.7065V5.67115H107.173V7.94093H95.9749V16.2226H107.665V18.4923H107.667ZM114.292 8.19189H111.802V18.7907H109.532V5.44668H111.802V5.92071H114.292V8.19049V8.19189Z" fill="#0B1890"/>
</svg>
